<mxfile host="app.diagrams.net" modified="2021-02-26T08:05:55.407Z" agent="5.0 (Windows NT 10.0; Win64; x64) AppleWebKit/537.36 (KHTML, like Gecko) Chrome/88.0.4324.190 Safari/537.36" etag="WYrQfyayA6878brxEzx0" version="14.4.3" type="github" pages="2">
  <diagram id="R2lEEEUBdFMjLlhIrx00" name="ER Diagram">
    <mxGraphModel dx="1108" dy="522" grid="1" gridSize="10" guides="1" tooltips="1" connect="1" arrows="1" fold="1" page="1" pageScale="1" pageWidth="850" pageHeight="1100" math="0" shadow="0" extFonts="Permanent Marker^https://fonts.googleapis.com/css?family=Permanent+Marker">
      <root>
        <mxCell id="0" />
        <mxCell id="1" parent="0" />
        <mxCell id="FEg0V8dU9HdjAfqLpy4W-1" value="User" style="swimlane;childLayout=stackLayout;horizontal=1;startSize=30;horizontalStack=0;rounded=1;fontSize=14;fontStyle=0;strokeWidth=2;resizeParent=0;resizeLast=1;shadow=0;dashed=0;align=center;" parent="1" vertex="1">
          <mxGeometry x="250" y="80" width="160" height="230" as="geometry" />
        </mxCell>
        <mxCell id="FEg0V8dU9HdjAfqLpy4W-2" value="displayName&#xa;email&#xa;emailVerified&#xa;isAnonymous&#xa;metadata&#xa;multiFactor&#xa;phoneNumber&#xa;photoURL&#xa;providerData&#xa;providerId&#xa;refreshToken&#xa;tenantId&#xa;uid" style="align=left;strokeColor=none;fillColor=none;spacingLeft=4;fontSize=12;verticalAlign=top;resizable=0;rotatable=0;part=1;" parent="FEg0V8dU9HdjAfqLpy4W-1" vertex="1">
          <mxGeometry y="30" width="160" height="200" as="geometry" />
        </mxCell>
        <mxCell id="FEg0V8dU9HdjAfqLpy4W-5" style="edgeStyle=orthogonalEdgeStyle;rounded=0;orthogonalLoop=1;jettySize=auto;html=1;exitX=0;exitY=0;exitDx=100;exitDy=60;exitPerimeter=0;dashed=1;endArrow=none;endFill=0;" parent="1" source="FEg0V8dU9HdjAfqLpy4W-4" target="FEg0V8dU9HdjAfqLpy4W-2" edge="1">
          <mxGeometry relative="1" as="geometry" />
        </mxCell>
        <mxCell id="FEg0V8dU9HdjAfqLpy4W-4" value="This is a base structure provided by Firebase" style="shape=note;size=20;whiteSpace=wrap;html=1;" parent="1" vertex="1">
          <mxGeometry x="90" y="150" width="100" height="100" as="geometry" />
        </mxCell>
        <mxCell id="FEg0V8dU9HdjAfqLpy4W-6" value="Wallet" style="swimlane;childLayout=stackLayout;horizontal=1;startSize=30;horizontalStack=0;rounded=1;fontSize=14;fontStyle=0;strokeWidth=2;resizeParent=0;resizeLast=1;shadow=0;dashed=0;align=center;" parent="1" vertex="1">
          <mxGeometry x="540" y="115" width="160" height="160" as="geometry" />
        </mxCell>
        <mxCell id="FEg0V8dU9HdjAfqLpy4W-7" value="_id&#xa;name&#xa;type&#xa;amount&#xa;color&#xa;bank?&#xa;serial?&#xa;currency" style="align=left;strokeColor=none;fillColor=none;spacingLeft=4;fontSize=12;verticalAlign=top;resizable=0;rotatable=0;part=1;" parent="FEg0V8dU9HdjAfqLpy4W-6" vertex="1">
          <mxGeometry y="30" width="160" height="130" as="geometry" />
        </mxCell>
      </root>
    </mxGraphModel>
  </diagram>
  <diagram id="W-mz7RX8GHqiV0XYWgv4" name="CDM">
    <mxGraphModel dx="1447" dy="870" grid="1" gridSize="10" guides="1" tooltips="1" connect="1" arrows="1" fold="1" page="1" pageScale="1" pageWidth="1169" pageHeight="827" math="0" shadow="0">
      <root>
        <mxCell id="NOlgtETGSss0G0qQo0d1-0" />
        <mxCell id="NOlgtETGSss0G0qQo0d1-1" parent="NOlgtETGSss0G0qQo0d1-0" />
        <mxCell id="XUGBlDIWUp4kDWDOZf_2-79" value="" style="group" vertex="1" connectable="0" parent="NOlgtETGSss0G0qQo0d1-1">
          <mxGeometry x="60" y="511" width="220" height="230" as="geometry" />
        </mxCell>
        <mxCell id="XUGBlDIWUp4kDWDOZf_2-41" value="&lt;span style=&quot;color: rgba(0 , 0 , 0 , 0) ; font-family: monospace ; font-size: 0px ; font-weight: 400&quot;&gt;%3CmxGraphModel%3E%3Croot%3E%3CmxCell%20id%3D%220%22%2F%3E%3CmxCell%20id%3D%221%22%20parent%3D%220%22%2F%3E%3CmxCell%20id%3D%222%22%20value%3D%22%26lt%3Bfont%20style%3D%26quot%3Bfont-size%3A%2015px%20%3B%20line-height%3A%20150%25%26quot%3B%26gt%3B%26lt%3Bspan%20style%3D%26quot%3Bfont-weight%3A%20normal%20%3B%20font-size%3A%2013px%26quot%3B%26gt%3B%26lt%3Bi%26gt%3B%26amp%3Blt%3B%26amp%3Blt%3BExternal%26amp%3Bgt%3B%26amp%3Bgt%3B%26lt%3Bbr%26gt%3B%26lt%3B%2Fi%26gt%3B%26lt%3B%2Fspan%26gt%3BFirebase%26lt%3B%2Ffont%26gt%3B%22%20style%3D%22text%3Balign%3Dcenter%3BfontStyle%3D1%3BverticalAlign%3Dmiddle%3BspacingLeft%3D3%3BspacingRight%3D3%3BstrokeColor%3Dnone%3Brotatable%3D0%3Bpoints%3D%5B%5B0%2C0.5%5D%2C%5B1%2C0.5%5D%5D%3BportConstraint%3Deastwest%3BfillColor%3Dnone%3BfontSize%3D11%3Bhtml%3D1%3BspacingTop%3D1%3B%22%20vertex%3D%221%22%20parent%3D%221%22%3E%3CmxGeometry%20x%3D%22335%22%20y%3D%2247%22%20width%3D%2280%22%20height%3D%2226%22%20as%3D%22geometry%22%2F%3E%3C%2FmxCell%3E%3C%2Froot%3E%3C%2FmxGraphModel%3E&lt;/span&gt;" style="shape=folder;fontStyle=1;spacingTop=10;tabWidth=40;tabHeight=14;tabPosition=left;html=1;fillColor=none;fontSize=11;" vertex="1" parent="XUGBlDIWUp4kDWDOZf_2-79">
          <mxGeometry width="210" height="230" as="geometry" />
        </mxCell>
        <mxCell id="XUGBlDIWUp4kDWDOZf_2-42" value="&lt;font style=&quot;line-height: 150%&quot;&gt;&lt;span style=&quot;font-size: 13px ; font-weight: normal&quot;&gt;&lt;i&gt;&amp;lt;&amp;lt;External&amp;gt;&amp;gt;&lt;br&gt;&lt;/i&gt;&lt;/span&gt;&lt;span style=&quot;font-size: 15px&quot;&gt;Currency Converter API&lt;/span&gt;&lt;br&gt;&lt;/font&gt;" style="text;align=center;fontStyle=1;verticalAlign=middle;spacingLeft=3;spacingRight=3;strokeColor=none;rotatable=0;points=[[0,0.5],[1,0.5]];portConstraint=eastwest;fillColor=none;fontSize=11;html=1;spacingTop=1;" vertex="1" parent="XUGBlDIWUp4kDWDOZf_2-79">
          <mxGeometry x="60" y="32" width="80" height="26" as="geometry" />
        </mxCell>
        <mxCell id="XUGBlDIWUp4kDWDOZf_2-43" value="&lt;b&gt;Currency&lt;/b&gt;" style="swimlane;fontStyle=0;childLayout=stackLayout;horizontal=1;startSize=26;fillColor=none;horizontalStack=0;resizeParent=1;resizeParentMax=0;resizeLast=0;collapsible=1;marginBottom=0;fontSize=11;html=1;" vertex="1" parent="XUGBlDIWUp4kDWDOZf_2-79">
          <mxGeometry x="30" y="96" width="140" height="78" as="geometry" />
        </mxCell>
        <mxCell id="XUGBlDIWUp4kDWDOZf_2-44" value="+ symbol: String &lt;PK&gt;" style="text;strokeColor=none;fillColor=none;align=left;verticalAlign=top;spacingLeft=4;spacingRight=4;overflow=hidden;rotatable=0;points=[[0,0.5],[1,0.5]];portConstraint=eastwest;" vertex="1" parent="XUGBlDIWUp4kDWDOZf_2-43">
          <mxGeometry y="26" width="140" height="26" as="geometry" />
        </mxCell>
        <mxCell id="XUGBlDIWUp4kDWDOZf_2-45" value="+ currencyName: String" style="text;strokeColor=none;fillColor=none;align=left;verticalAlign=top;spacingLeft=4;spacingRight=4;overflow=hidden;rotatable=0;points=[[0,0.5],[1,0.5]];portConstraint=eastwest;" vertex="1" parent="XUGBlDIWUp4kDWDOZf_2-43">
          <mxGeometry y="52" width="140" height="26" as="geometry" />
        </mxCell>
        <mxCell id="XUGBlDIWUp4kDWDOZf_2-77" value="" style="group;" vertex="1" connectable="0" parent="NOlgtETGSss0G0qQo0d1-1">
          <mxGeometry x="910" y="25" width="200" height="445" as="geometry" />
        </mxCell>
        <mxCell id="XUGBlDIWUp4kDWDOZf_2-58" value="&lt;span style=&quot;color: rgba(0 , 0 , 0 , 0) ; font-family: monospace ; font-size: 0px ; font-weight: 400&quot;&gt;%3CmxGraphModel%3E%3Croot%3E%3CmxCell%20id%3D%220%22%2F%3E%3CmxCell%20id%3D%221%22%20parent%3D%220%22%2F%3E%3CmxCell%20id%3D%222%22%20value%3D%22%26lt%3Bfont%20style%3D%26quot%3Bfont-size%3A%2015px%20%3B%20line-height%3A%20150%25%26quot%3B%26gt%3B%26lt%3Bspan%20style%3D%26quot%3Bfont-weight%3A%20normal%20%3B%20font-size%3A%2013px%26quot%3B%26gt%3B%26lt%3Bi%26gt%3B%26amp%3Blt%3B%26amp%3Blt%3BExternal%26amp%3Bgt%3B%26amp%3Bgt%3B%26lt%3Bbr%26gt%3B%26lt%3B%2Fi%26gt%3B%26lt%3B%2Fspan%26gt%3BFirebase%26lt%3B%2Ffont%26gt%3B%22%20style%3D%22text%3Balign%3Dcenter%3BfontStyle%3D1%3BverticalAlign%3Dmiddle%3BspacingLeft%3D3%3BspacingRight%3D3%3BstrokeColor%3Dnone%3Brotatable%3D0%3Bpoints%3D%5B%5B0%2C0.5%5D%2C%5B1%2C0.5%5D%5D%3BportConstraint%3Deastwest%3BfillColor%3Dnone%3BfontSize%3D11%3Bhtml%3D1%3BspacingTop%3D1%3B%22%20vertex%3D%221%22%20parent%3D%221%22%3E%3CmxGeometry%20x%3D%22335%22%20y%3D%2247%22%20width%3D%2280%22%20height%3D%2226%22%20as%3D%22geometry%22%2F%3E%3C%2FmxCell%3E%3C%2Froot%3E%3C%2FmxGraphModel%3E&lt;/span&gt;" style="shape=folder;fontStyle=1;spacingTop=10;tabWidth=40;tabHeight=14;tabPosition=left;html=1;fillColor=none;fontSize=11;" vertex="1" parent="XUGBlDIWUp4kDWDOZf_2-77">
          <mxGeometry width="200" height="445.00000000000006" as="geometry" />
        </mxCell>
        <mxCell id="XUGBlDIWUp4kDWDOZf_2-59" value="&lt;font style=&quot;line-height: 150%&quot;&gt;&lt;span style=&quot;font-size: 13px ; font-weight: normal&quot;&gt;&lt;i&gt;&amp;lt;&amp;lt;External&amp;gt;&amp;gt;&lt;br&gt;&lt;/i&gt;&lt;/span&gt;&lt;span style=&quot;font-size: 15px&quot;&gt;Cloudinary&lt;/span&gt;&lt;br&gt;&lt;/font&gt;" style="text;align=center;fontStyle=1;verticalAlign=middle;spacingLeft=3;spacingRight=3;strokeColor=none;rotatable=0;points=[[0,0.5],[1,0.5]];portConstraint=eastwest;fillColor=none;fontSize=11;html=1;spacingTop=1;" vertex="1" parent="XUGBlDIWUp4kDWDOZf_2-77">
          <mxGeometry x="60" y="32.36363636363637" width="80" height="26.295454545454547" as="geometry" />
        </mxCell>
        <mxCell id="XUGBlDIWUp4kDWDOZf_2-61" value="&lt;b&gt;UploadResponse&lt;/b&gt;" style="swimlane;fontStyle=0;childLayout=stackLayout;horizontal=1;startSize=26;fillColor=none;horizontalStack=0;resizeParent=1;resizeParentMax=0;resizeLast=0;collapsible=1;marginBottom=0;fontSize=11;html=1;" vertex="1" parent="XUGBlDIWUp4kDWDOZf_2-77">
          <mxGeometry x="30" y="74.99727272727273" width="140" height="341.5454545454547" as="geometry" />
        </mxCell>
        <mxCell id="XUGBlDIWUp4kDWDOZf_2-62" value="+ public_id: String" style="text;strokeColor=none;fillColor=none;align=left;verticalAlign=top;spacingLeft=4;spacingRight=4;overflow=hidden;rotatable=0;points=[[0,0.5],[1,0.5]];portConstraint=eastwest;" vertex="1" parent="XUGBlDIWUp4kDWDOZf_2-61">
          <mxGeometry y="26" width="140" height="26.295454545454547" as="geometry" />
        </mxCell>
        <mxCell id="XUGBlDIWUp4kDWDOZf_2-63" value="+ version: String" style="text;strokeColor=none;fillColor=none;align=left;verticalAlign=top;spacingLeft=4;spacingRight=4;overflow=hidden;rotatable=0;points=[[0,0.5],[1,0.5]];portConstraint=eastwest;" vertex="1" parent="XUGBlDIWUp4kDWDOZf_2-61">
          <mxGeometry y="52.29545454545455" width="140" height="26.295454545454547" as="geometry" />
        </mxCell>
        <mxCell id="XUGBlDIWUp4kDWDOZf_2-64" value="+ signature: String" style="text;strokeColor=none;fillColor=none;align=left;verticalAlign=top;spacingLeft=4;spacingRight=4;overflow=hidden;rotatable=0;points=[[0,0.5],[1,0.5]];portConstraint=eastwest;" vertex="1" parent="XUGBlDIWUp4kDWDOZf_2-61">
          <mxGeometry y="78.5909090909091" width="140" height="26.295454545454547" as="geometry" />
        </mxCell>
        <mxCell id="XUGBlDIWUp4kDWDOZf_2-67" value="+ width: Number" style="text;strokeColor=none;fillColor=none;align=left;verticalAlign=top;spacingLeft=4;spacingRight=4;overflow=hidden;rotatable=0;points=[[0,0.5],[1,0.5]];portConstraint=eastwest;" vertex="1" parent="XUGBlDIWUp4kDWDOZf_2-61">
          <mxGeometry y="104.88636363636364" width="140" height="26.295454545454547" as="geometry" />
        </mxCell>
        <mxCell id="XUGBlDIWUp4kDWDOZf_2-68" value="+ height: Number" style="text;strokeColor=none;fillColor=none;align=left;verticalAlign=top;spacingLeft=4;spacingRight=4;overflow=hidden;rotatable=0;points=[[0,0.5],[1,0.5]];portConstraint=eastwest;" vertex="1" parent="XUGBlDIWUp4kDWDOZf_2-61">
          <mxGeometry y="131.1818181818182" width="140" height="26.295454545454547" as="geometry" />
        </mxCell>
        <mxCell id="XUGBlDIWUp4kDWDOZf_2-69" value="+ format: String" style="text;strokeColor=none;fillColor=none;align=left;verticalAlign=top;spacingLeft=4;spacingRight=4;overflow=hidden;rotatable=0;points=[[0,0.5],[1,0.5]];portConstraint=eastwest;" vertex="1" parent="XUGBlDIWUp4kDWDOZf_2-61">
          <mxGeometry y="157.47727272727275" width="140" height="26.295454545454547" as="geometry" />
        </mxCell>
        <mxCell id="XUGBlDIWUp4kDWDOZf_2-70" value="+ resource_type: String" style="text;strokeColor=none;fillColor=none;align=left;verticalAlign=top;spacingLeft=4;spacingRight=4;overflow=hidden;rotatable=0;points=[[0,0.5],[1,0.5]];portConstraint=eastwest;" vertex="1" parent="XUGBlDIWUp4kDWDOZf_2-61">
          <mxGeometry y="183.7727272727273" width="140" height="26.295454545454547" as="geometry" />
        </mxCell>
        <mxCell id="XUGBlDIWUp4kDWDOZf_2-71" value="+ created_at: DateTime" style="text;strokeColor=none;fillColor=none;align=left;verticalAlign=top;spacingLeft=4;spacingRight=4;overflow=hidden;rotatable=0;points=[[0,0.5],[1,0.5]];portConstraint=eastwest;" vertex="1" parent="XUGBlDIWUp4kDWDOZf_2-61">
          <mxGeometry y="210.06818181818187" width="140" height="26.295454545454547" as="geometry" />
        </mxCell>
        <mxCell id="XUGBlDIWUp4kDWDOZf_2-72" value="+ bytes: Number" style="text;strokeColor=none;fillColor=none;align=left;verticalAlign=top;spacingLeft=4;spacingRight=4;overflow=hidden;rotatable=0;points=[[0,0.5],[1,0.5]];portConstraint=eastwest;" vertex="1" parent="XUGBlDIWUp4kDWDOZf_2-61">
          <mxGeometry y="236.36363636363643" width="140" height="26.295454545454547" as="geometry" />
        </mxCell>
        <mxCell id="XUGBlDIWUp4kDWDOZf_2-73" value="+ type: String" style="text;strokeColor=none;fillColor=none;align=left;verticalAlign=top;spacingLeft=4;spacingRight=4;overflow=hidden;rotatable=0;points=[[0,0.5],[1,0.5]];portConstraint=eastwest;" vertex="1" parent="XUGBlDIWUp4kDWDOZf_2-61">
          <mxGeometry y="262.659090909091" width="140" height="26.295454545454547" as="geometry" />
        </mxCell>
        <mxCell id="XUGBlDIWUp4kDWDOZf_2-74" value="+ url: String" style="text;strokeColor=none;fillColor=none;align=left;verticalAlign=top;spacingLeft=4;spacingRight=4;overflow=hidden;rotatable=0;points=[[0,0.5],[1,0.5]];portConstraint=eastwest;" vertex="1" parent="XUGBlDIWUp4kDWDOZf_2-61">
          <mxGeometry y="288.95454545454555" width="140" height="26.295454545454547" as="geometry" />
        </mxCell>
        <mxCell id="XUGBlDIWUp4kDWDOZf_2-75" value="+ sercure_url: String" style="text;strokeColor=none;fillColor=none;align=left;verticalAlign=top;spacingLeft=4;spacingRight=4;overflow=hidden;rotatable=0;points=[[0,0.5],[1,0.5]];portConstraint=eastwest;" vertex="1" parent="XUGBlDIWUp4kDWDOZf_2-61">
          <mxGeometry y="315.2500000000001" width="140" height="26.295454545454547" as="geometry" />
        </mxCell>
        <mxCell id="XUGBlDIWUp4kDWDOZf_2-78" value="" style="group;dashed=1;perimeterSpacing=16;strokeWidth=5;" vertex="1" connectable="0" parent="NOlgtETGSss0G0qQo0d1-1">
          <mxGeometry x="60" y="10" width="630" height="470" as="geometry" />
        </mxCell>
        <mxCell id="XUGBlDIWUp4kDWDOZf_2-39" value="" style="shape=folder;fontStyle=1;spacingTop=10;tabWidth=40;tabHeight=14;tabPosition=left;html=1;fillColor=none;fontSize=11;" vertex="1" parent="XUGBlDIWUp4kDWDOZf_2-78">
          <mxGeometry width="630" height="470.00000000000006" as="geometry" />
        </mxCell>
        <mxCell id="LDkgXfNSE1SAKIoB8J5U-1" style="edgeStyle=orthogonalEdgeStyle;rounded=0;orthogonalLoop=1;jettySize=auto;html=1;dashed=1;endArrow=none;endFill=0;" edge="1" parent="XUGBlDIWUp4kDWDOZf_2-78" source="LDkgXfNSE1SAKIoB8J5U-0" target="GZVnK859lEwQY5w0YKhL-0">
          <mxGeometry relative="1" as="geometry" />
        </mxCell>
        <mxCell id="LDkgXfNSE1SAKIoB8J5U-0" value="The current user&#39;s tenant ID. This is a read-only property, which indicates the tenant ID used to sign in the current user. This is null if the user is signed in from the parent project." style="shape=note;size=20;whiteSpace=wrap;html=1;" vertex="1" parent="XUGBlDIWUp4kDWDOZf_2-78">
          <mxGeometry x="30" y="223.7608695652174" width="270" height="102.17391304347827" as="geometry" />
        </mxCell>
        <mxCell id="XUGBlDIWUp4kDWDOZf_2-40" value="&lt;font style=&quot;font-size: 15px ; line-height: 150%&quot;&gt;&lt;span style=&quot;font-weight: normal ; font-size: 13px&quot;&gt;&lt;i&gt;&amp;lt;&amp;lt;External&amp;gt;&amp;gt;&lt;br&gt;&lt;/i&gt;&lt;/span&gt;Firebase&lt;/font&gt;" style="text;align=center;fontStyle=1;verticalAlign=middle;spacingLeft=3;spacingRight=3;strokeColor=none;rotatable=0;points=[[0,0.5],[1,0.5]];portConstraint=eastwest;fillColor=none;fontSize=11;html=1;spacingTop=1;" vertex="1" parent="XUGBlDIWUp4kDWDOZf_2-78">
          <mxGeometry x="275" y="37.80434782608696" width="80" height="26.56521739130435" as="geometry" />
        </mxCell>
        <mxCell id="GZVnK859lEwQY5w0YKhL-0" value="User" style="swimlane;fontStyle=1;childLayout=stackLayout;horizontal=1;startSize=26;fillColor=none;horizontalStack=0;resizeParent=1;resizeParentMax=0;resizeLast=0;collapsible=1;marginBottom=0;" vertex="1" parent="XUGBlDIWUp4kDWDOZf_2-78">
          <mxGeometry x="380" y="90.00391304347826" width="210" height="344.78260869565224" as="geometry">
            <mxRectangle x="380" y="120" width="110" height="26" as="alternateBounds" />
          </mxGeometry>
        </mxCell>
        <mxCell id="GZVnK859lEwQY5w0YKhL-1" value="+ uid: String &lt;PK&gt;" style="text;strokeColor=none;fillColor=none;align=left;verticalAlign=top;spacingLeft=4;spacingRight=4;overflow=hidden;rotatable=0;points=[[0,0.5],[1,0.5]];portConstraint=eastwest;" vertex="1" parent="GZVnK859lEwQY5w0YKhL-0">
          <mxGeometry y="26" width="210" height="26.56521739130435" as="geometry" />
        </mxCell>
        <mxCell id="GZVnK859lEwQY5w0YKhL-2" value="+ displayName: String" style="text;strokeColor=none;fillColor=none;align=left;verticalAlign=top;spacingLeft=4;spacingRight=4;overflow=hidden;rotatable=0;points=[[0,0.5],[1,0.5]];portConstraint=eastwest;" vertex="1" parent="GZVnK859lEwQY5w0YKhL-0">
          <mxGeometry y="52.56521739130435" width="210" height="26.56521739130435" as="geometry" />
        </mxCell>
        <mxCell id="GZVnK859lEwQY5w0YKhL-3" value="+ email: String" style="text;strokeColor=none;fillColor=none;align=left;verticalAlign=top;spacingLeft=4;spacingRight=4;overflow=hidden;rotatable=0;points=[[0,0.5],[1,0.5]];portConstraint=eastwest;" vertex="1" parent="GZVnK859lEwQY5w0YKhL-0">
          <mxGeometry y="79.1304347826087" width="210" height="26.56521739130435" as="geometry" />
        </mxCell>
        <mxCell id="Yve6wahVqOZbwBR6KENq-0" value="+ emailVerified: Boolean" style="text;strokeColor=none;fillColor=none;align=left;verticalAlign=top;spacingLeft=4;spacingRight=4;overflow=hidden;rotatable=0;points=[[0,0.5],[1,0.5]];portConstraint=eastwest;" vertex="1" parent="GZVnK859lEwQY5w0YKhL-0">
          <mxGeometry y="105.69565217391306" width="210" height="26.56521739130435" as="geometry" />
        </mxCell>
        <mxCell id="DC28FSc4O947yLNKNgoS-6" value="+ isAnomynous: Boolean" style="text;strokeColor=none;fillColor=none;align=left;verticalAlign=top;spacingLeft=4;spacingRight=4;overflow=hidden;rotatable=0;points=[[0,0.5],[1,0.5]];portConstraint=eastwest;" vertex="1" parent="GZVnK859lEwQY5w0YKhL-0">
          <mxGeometry y="132.2608695652174" width="210" height="26.56521739130435" as="geometry" />
        </mxCell>
        <mxCell id="DC28FSc4O947yLNKNgoS-5" value="+ metadata: UserMetadata" style="text;strokeColor=none;fillColor=none;align=left;verticalAlign=top;spacingLeft=4;spacingRight=4;overflow=hidden;rotatable=0;points=[[0,0.5],[1,0.5]];portConstraint=eastwest;" vertex="1" parent="GZVnK859lEwQY5w0YKhL-0">
          <mxGeometry y="158.82608695652175" width="210" height="26.56521739130435" as="geometry" />
        </mxCell>
        <mxCell id="DC28FSc4O947yLNKNgoS-7" value="+ phoneNumber: String" style="text;strokeColor=none;fillColor=none;align=left;verticalAlign=top;spacingLeft=4;spacingRight=4;overflow=hidden;rotatable=0;points=[[0,0.5],[1,0.5]];portConstraint=eastwest;" vertex="1" parent="GZVnK859lEwQY5w0YKhL-0">
          <mxGeometry y="185.3913043478261" width="210" height="26.56521739130435" as="geometry" />
        </mxCell>
        <mxCell id="DC28FSc4O947yLNKNgoS-8" value="+ photoURL: String" style="text;strokeColor=none;fillColor=none;align=left;verticalAlign=top;spacingLeft=4;spacingRight=4;overflow=hidden;rotatable=0;points=[[0,0.5],[1,0.5]];portConstraint=eastwest;" vertex="1" parent="GZVnK859lEwQY5w0YKhL-0">
          <mxGeometry y="211.95652173913044" width="210" height="26.56521739130435" as="geometry" />
        </mxCell>
        <mxCell id="DC28FSc4O947yLNKNgoS-9" value="+ multiFactor: MultiFactorUser" style="text;strokeColor=none;fillColor=none;align=left;verticalAlign=top;spacingLeft=4;spacingRight=4;overflow=hidden;rotatable=0;points=[[0,0.5],[1,0.5]];portConstraint=eastwest;" vertex="1" parent="GZVnK859lEwQY5w0YKhL-0">
          <mxGeometry y="238.52173913043478" width="210" height="26.56521739130435" as="geometry" />
        </mxCell>
        <mxCell id="c4vCGAH1K5XZKWhTvJJz-0" value="+ providerId: String" style="text;strokeColor=none;fillColor=none;align=left;verticalAlign=top;spacingLeft=4;spacingRight=4;overflow=hidden;rotatable=0;points=[[0,0.5],[1,0.5]];portConstraint=eastwest;" vertex="1" parent="GZVnK859lEwQY5w0YKhL-0">
          <mxGeometry y="265.0869565217391" width="210" height="26.56521739130435" as="geometry" />
        </mxCell>
        <mxCell id="c4vCGAH1K5XZKWhTvJJz-1" value="+ providerData: UserInfo" style="text;strokeColor=none;fillColor=none;align=left;verticalAlign=top;spacingLeft=4;spacingRight=4;overflow=hidden;rotatable=0;points=[[0,0.5],[1,0.5]];portConstraint=eastwest;" vertex="1" parent="GZVnK859lEwQY5w0YKhL-0">
          <mxGeometry y="291.6521739130435" width="210" height="26.56521739130435" as="geometry" />
        </mxCell>
        <mxCell id="c4vCGAH1K5XZKWhTvJJz-2" value="+ tenantId: String" style="text;strokeColor=none;fillColor=none;align=left;verticalAlign=top;spacingLeft=4;spacingRight=4;overflow=hidden;rotatable=0;points=[[0,0.5],[1,0.5]];portConstraint=eastwest;" vertex="1" parent="GZVnK859lEwQY5w0YKhL-0">
          <mxGeometry y="318.21739130434787" width="210" height="26.56521739130435" as="geometry" />
        </mxCell>
        <mxCell id="XUGBlDIWUp4kDWDOZf_2-80" style="edgeStyle=orthogonalEdgeStyle;rounded=0;orthogonalLoop=1;jettySize=auto;html=1;exitX=0.5;exitY=0;exitDx=0;exitDy=0;startArrow=none;startFill=0;endArrow=diamondThin;endFill=1;fontSize=11;" edge="1" parent="NOlgtETGSss0G0qQo0d1-1" source="XUGBlDIWUp4kDWDOZf_2-3" target="GZVnK859lEwQY5w0YKhL-0">
          <mxGeometry relative="1" as="geometry" />
        </mxCell>
        <mxCell id="XUGBlDIWUp4kDWDOZf_2-81" value="1..*" style="edgeLabel;html=1;align=center;verticalAlign=middle;resizable=0;points=[];fontSize=11;" vertex="1" connectable="0" parent="XUGBlDIWUp4kDWDOZf_2-80">
          <mxGeometry x="-0.9055" relative="1" as="geometry">
            <mxPoint y="-6.79" as="offset" />
          </mxGeometry>
        </mxCell>
        <mxCell id="XUGBlDIWUp4kDWDOZf_2-82" value="1" style="edgeLabel;html=1;align=center;verticalAlign=middle;resizable=0;points=[];fontSize=11;" vertex="1" connectable="0" parent="XUGBlDIWUp4kDWDOZf_2-80">
          <mxGeometry x="0.9221" relative="1" as="geometry">
            <mxPoint y="9" as="offset" />
          </mxGeometry>
        </mxCell>
        <mxCell id="XUGBlDIWUp4kDWDOZf_2-3" value="Wallet" style="swimlane;fontStyle=1;childLayout=stackLayout;horizontal=1;startSize=26;fillColor=none;horizontalStack=0;resizeParent=1;resizeParentMax=0;resizeLast=0;collapsible=1;marginBottom=0;" vertex="1" parent="NOlgtETGSss0G0qQo0d1-1">
          <mxGeometry x="330" y="555" width="140" height="208" as="geometry" />
        </mxCell>
        <mxCell id="XUGBlDIWUp4kDWDOZf_2-4" value="+ _id: ObjectId &lt;PK&gt;" style="text;strokeColor=none;fillColor=none;align=left;verticalAlign=top;spacingLeft=4;spacingRight=4;overflow=hidden;rotatable=0;points=[[0,0.5],[1,0.5]];portConstraint=eastwest;" vertex="1" parent="XUGBlDIWUp4kDWDOZf_2-3">
          <mxGeometry y="26" width="140" height="26" as="geometry" />
        </mxCell>
        <mxCell id="XUGBlDIWUp4kDWDOZf_2-5" value="+ walletName: String" style="text;strokeColor=none;fillColor=none;align=left;verticalAlign=top;spacingLeft=4;spacingRight=4;overflow=hidden;rotatable=0;points=[[0,0.5],[1,0.5]];portConstraint=eastwest;" vertex="1" parent="XUGBlDIWUp4kDWDOZf_2-3">
          <mxGeometry y="52" width="140" height="26" as="geometry" />
        </mxCell>
        <mxCell id="XUGBlDIWUp4kDWDOZf_2-6" value="+ amount: Number" style="text;strokeColor=none;fillColor=none;align=left;verticalAlign=top;spacingLeft=4;spacingRight=4;overflow=hidden;rotatable=0;points=[[0,0.5],[1,0.5]];portConstraint=eastwest;" vertex="1" parent="XUGBlDIWUp4kDWDOZf_2-3">
          <mxGeometry y="78" width="140" height="26" as="geometry" />
        </mxCell>
        <mxCell id="XUGBlDIWUp4kDWDOZf_2-7" value="+ color: String" style="text;strokeColor=none;fillColor=none;align=left;verticalAlign=top;spacingLeft=4;spacingRight=4;overflow=hidden;rotatable=0;points=[[0,0.5],[1,0.5]];portConstraint=eastwest;" vertex="1" parent="XUGBlDIWUp4kDWDOZf_2-3">
          <mxGeometry y="104" width="140" height="26" as="geometry" />
        </mxCell>
        <mxCell id="XUGBlDIWUp4kDWDOZf_2-8" value="+ bank: String" style="text;strokeColor=none;fillColor=none;align=left;verticalAlign=top;spacingLeft=4;spacingRight=4;overflow=hidden;rotatable=0;points=[[0,0.5],[1,0.5]];portConstraint=eastwest;" vertex="1" parent="XUGBlDIWUp4kDWDOZf_2-3">
          <mxGeometry y="130" width="140" height="26" as="geometry" />
        </mxCell>
        <mxCell id="XUGBlDIWUp4kDWDOZf_2-9" value="+ serial: String" style="text;strokeColor=none;fillColor=none;align=left;verticalAlign=top;spacingLeft=4;spacingRight=4;overflow=hidden;rotatable=0;points=[[0,0.5],[1,0.5]];portConstraint=eastwest;" vertex="1" parent="XUGBlDIWUp4kDWDOZf_2-3">
          <mxGeometry y="156" width="140" height="26" as="geometry" />
        </mxCell>
        <mxCell id="XUGBlDIWUp4kDWDOZf_2-10" value="+ currency: Currency" style="text;strokeColor=none;fillColor=none;align=left;verticalAlign=top;spacingLeft=4;spacingRight=4;overflow=hidden;rotatable=0;points=[[0,0.5],[1,0.5]];portConstraint=eastwest;" vertex="1" parent="XUGBlDIWUp4kDWDOZf_2-3">
          <mxGeometry y="182" width="140" height="26" as="geometry" />
        </mxCell>
        <mxCell id="XUGBlDIWUp4kDWDOZf_2-94" style="edgeStyle=orthogonalEdgeStyle;rounded=0;orthogonalLoop=1;jettySize=auto;html=1;exitX=0.75;exitY=0;exitDx=0;exitDy=0;startArrow=none;startFill=0;endArrow=none;endFill=0;fontSize=11;entryX=0;entryY=0.5;entryDx=0;entryDy=0;" edge="1" parent="NOlgtETGSss0G0qQo0d1-1" source="XUGBlDIWUp4kDWDOZf_2-21" target="XUGBlDIWUp4kDWDOZf_2-69">
          <mxGeometry relative="1" as="geometry" />
        </mxCell>
        <mxCell id="XUGBlDIWUp4kDWDOZf_2-21" value="&lt;i style=&quot;font-size: 9px&quot;&gt;&amp;lt;&amp;lt;Interface&amp;gt;&amp;gt;&lt;br&gt;&lt;/i&gt;&lt;b&gt;&lt;font style=&quot;font-size: 12px&quot;&gt;ITransaction&lt;/font&gt;&lt;/b&gt;" style="swimlane;fontStyle=0;childLayout=stackLayout;horizontal=1;startSize=40;fillColor=none;horizontalStack=0;resizeParent=1;resizeParentMax=0;resizeLast=0;collapsible=1;marginBottom=0;fontSize=10;html=1;" vertex="1" parent="NOlgtETGSss0G0qQo0d1-1">
          <mxGeometry x="677" y="496" width="140" height="196" as="geometry" />
        </mxCell>
        <mxCell id="XUGBlDIWUp4kDWDOZf_2-22" value="+ _id: ObjectId" style="text;strokeColor=none;fillColor=none;align=left;verticalAlign=top;spacingLeft=4;spacingRight=4;overflow=hidden;rotatable=0;points=[[0,0.5],[1,0.5]];portConstraint=eastwest;" vertex="1" parent="XUGBlDIWUp4kDWDOZf_2-21">
          <mxGeometry y="40" width="140" height="26" as="geometry" />
        </mxCell>
        <mxCell id="XUGBlDIWUp4kDWDOZf_2-23" value="+ value: Number" style="text;strokeColor=none;fillColor=none;align=left;verticalAlign=top;spacingLeft=4;spacingRight=4;overflow=hidden;rotatable=0;points=[[0,0.5],[1,0.5]];portConstraint=eastwest;" vertex="1" parent="XUGBlDIWUp4kDWDOZf_2-21">
          <mxGeometry y="66" width="140" height="26" as="geometry" />
        </mxCell>
        <mxCell id="XUGBlDIWUp4kDWDOZf_2-24" value="+ time: DateTime" style="text;strokeColor=none;fillColor=none;align=left;verticalAlign=top;spacingLeft=4;spacingRight=4;overflow=hidden;rotatable=0;points=[[0,0.5],[1,0.5]];portConstraint=eastwest;" vertex="1" parent="XUGBlDIWUp4kDWDOZf_2-21">
          <mxGeometry y="92" width="140" height="26" as="geometry" />
        </mxCell>
        <mxCell id="XUGBlDIWUp4kDWDOZf_2-25" value="+ category: Category" style="text;strokeColor=none;fillColor=none;align=left;verticalAlign=top;spacingLeft=4;spacingRight=4;overflow=hidden;rotatable=0;points=[[0,0.5],[1,0.5]];portConstraint=eastwest;" vertex="1" parent="XUGBlDIWUp4kDWDOZf_2-21">
          <mxGeometry y="118" width="140" height="26" as="geometry" />
        </mxCell>
        <mxCell id="XUGBlDIWUp4kDWDOZf_2-26" value="+ detail: String" style="text;strokeColor=none;fillColor=none;align=left;verticalAlign=top;spacingLeft=4;spacingRight=4;overflow=hidden;rotatable=0;points=[[0,0.5],[1,0.5]];portConstraint=eastwest;" vertex="1" parent="XUGBlDIWUp4kDWDOZf_2-21">
          <mxGeometry y="144" width="140" height="26" as="geometry" />
        </mxCell>
        <mxCell id="XUGBlDIWUp4kDWDOZf_2-27" value="+ images: Image" style="text;strokeColor=none;fillColor=none;align=left;verticalAlign=top;spacingLeft=4;spacingRight=4;overflow=hidden;rotatable=0;points=[[0,0.5],[1,0.5]];portConstraint=eastwest;" vertex="1" parent="XUGBlDIWUp4kDWDOZf_2-21">
          <mxGeometry y="170" width="140" height="26" as="geometry" />
        </mxCell>
        <mxCell id="XUGBlDIWUp4kDWDOZf_2-88" style="edgeStyle=orthogonalEdgeStyle;rounded=0;orthogonalLoop=1;jettySize=auto;html=1;exitX=0.5;exitY=0;exitDx=0;exitDy=0;startArrow=none;startFill=0;endArrow=block;endFill=0;fontSize=11;" edge="1" parent="NOlgtETGSss0G0qQo0d1-1" source="XUGBlDIWUp4kDWDOZf_2-28" target="XUGBlDIWUp4kDWDOZf_2-21">
          <mxGeometry relative="1" as="geometry" />
        </mxCell>
        <mxCell id="XUGBlDIWUp4kDWDOZf_2-28" value="&lt;b&gt;Debt&lt;/b&gt;" style="swimlane;fontStyle=0;childLayout=stackLayout;horizontal=1;startSize=26;fillColor=none;horizontalStack=0;resizeParent=1;resizeParentMax=0;resizeLast=0;collapsible=1;marginBottom=0;fontSize=11;html=1;" vertex="1" parent="NOlgtETGSss0G0qQo0d1-1">
          <mxGeometry x="840" y="620" width="140" height="78" as="geometry" />
        </mxCell>
        <mxCell id="XUGBlDIWUp4kDWDOZf_2-29" value="+ assignTo: Person" style="text;strokeColor=none;fillColor=none;align=left;verticalAlign=top;spacingLeft=4;spacingRight=4;overflow=hidden;rotatable=0;points=[[0,0.5],[1,0.5]];portConstraint=eastwest;" vertex="1" parent="XUGBlDIWUp4kDWDOZf_2-28">
          <mxGeometry y="26" width="140" height="26" as="geometry" />
        </mxCell>
        <mxCell id="XUGBlDIWUp4kDWDOZf_2-30" value="+ isPaid: Boolean" style="text;strokeColor=none;fillColor=none;align=left;verticalAlign=top;spacingLeft=4;spacingRight=4;overflow=hidden;rotatable=0;points=[[0,0.5],[1,0.5]];portConstraint=eastwest;" vertex="1" parent="XUGBlDIWUp4kDWDOZf_2-28">
          <mxGeometry y="52" width="140" height="26" as="geometry" />
        </mxCell>
        <mxCell id="XUGBlDIWUp4kDWDOZf_2-89" style="edgeStyle=orthogonalEdgeStyle;rounded=0;orthogonalLoop=1;jettySize=auto;html=1;exitX=0.5;exitY=0;exitDx=0;exitDy=0;startArrow=none;startFill=0;endArrow=block;endFill=0;fontSize=11;" edge="1" parent="NOlgtETGSss0G0qQo0d1-1" source="XUGBlDIWUp4kDWDOZf_2-32" target="XUGBlDIWUp4kDWDOZf_2-21">
          <mxGeometry relative="1" as="geometry" />
        </mxCell>
        <mxCell id="XUGBlDIWUp4kDWDOZf_2-32" value="&lt;b&gt;Loan&lt;/b&gt;" style="swimlane;fontStyle=0;childLayout=stackLayout;horizontal=1;startSize=26;fillColor=none;horizontalStack=0;resizeParent=1;resizeParentMax=0;resizeLast=0;collapsible=1;marginBottom=0;fontSize=11;html=1;" vertex="1" parent="NOlgtETGSss0G0qQo0d1-1">
          <mxGeometry x="677" y="730" width="140" height="78" as="geometry" />
        </mxCell>
        <mxCell id="XUGBlDIWUp4kDWDOZf_2-33" value="+ assignTo: Person" style="text;strokeColor=none;fillColor=none;align=left;verticalAlign=top;spacingLeft=4;spacingRight=4;overflow=hidden;rotatable=0;points=[[0,0.5],[1,0.5]];portConstraint=eastwest;" vertex="1" parent="XUGBlDIWUp4kDWDOZf_2-32">
          <mxGeometry y="26" width="140" height="26" as="geometry" />
        </mxCell>
        <mxCell id="XUGBlDIWUp4kDWDOZf_2-34" value="+ isReceived: Boolean" style="text;strokeColor=none;fillColor=none;align=left;verticalAlign=top;spacingLeft=4;spacingRight=4;overflow=hidden;rotatable=0;points=[[0,0.5],[1,0.5]];portConstraint=eastwest;" vertex="1" parent="XUGBlDIWUp4kDWDOZf_2-32">
          <mxGeometry y="52" width="140" height="26" as="geometry" />
        </mxCell>
        <mxCell id="XUGBlDIWUp4kDWDOZf_2-86" style="edgeStyle=orthogonalEdgeStyle;rounded=0;orthogonalLoop=1;jettySize=auto;html=1;exitX=0.5;exitY=0;exitDx=0;exitDy=0;startArrow=none;startFill=0;endArrow=block;endFill=0;fontSize=11;" edge="1" parent="NOlgtETGSss0G0qQo0d1-1" source="XUGBlDIWUp4kDWDOZf_2-35" target="XUGBlDIWUp4kDWDOZf_2-21">
          <mxGeometry relative="1" as="geometry" />
        </mxCell>
        <mxCell id="XUGBlDIWUp4kDWDOZf_2-35" value="&lt;b&gt;Transaction&lt;/b&gt;" style="swimlane;fontStyle=0;childLayout=stackLayout;horizontal=1;startSize=40;fillColor=none;horizontalStack=0;resizeParent=1;resizeParentMax=0;resizeLast=0;collapsible=1;marginBottom=0;fontSize=11;html=1;" vertex="1" parent="NOlgtETGSss0G0qQo0d1-1">
          <mxGeometry x="510" y="741" width="140" height="40" as="geometry" />
        </mxCell>
        <mxCell id="XUGBlDIWUp4kDWDOZf_2-47" value="&lt;b&gt;Category&lt;/b&gt;" style="swimlane;fontStyle=0;childLayout=stackLayout;horizontal=1;startSize=26;fillColor=none;horizontalStack=0;resizeParent=1;resizeParentMax=0;resizeLast=0;collapsible=1;marginBottom=0;fontSize=11;html=1;" vertex="1" parent="NOlgtETGSss0G0qQo0d1-1">
          <mxGeometry x="1010" y="511" width="140" height="130" as="geometry" />
        </mxCell>
        <mxCell id="XUGBlDIWUp4kDWDOZf_2-48" value="+ _id: ObjectId" style="text;strokeColor=none;fillColor=none;align=left;verticalAlign=top;spacingLeft=4;spacingRight=4;overflow=hidden;rotatable=0;points=[[0,0.5],[1,0.5]];portConstraint=eastwest;" vertex="1" parent="XUGBlDIWUp4kDWDOZf_2-47">
          <mxGeometry y="26" width="140" height="26" as="geometry" />
        </mxCell>
        <mxCell id="XUGBlDIWUp4kDWDOZf_2-49" value="+ categoryName: String" style="text;strokeColor=none;fillColor=none;align=left;verticalAlign=top;spacingLeft=4;spacingRight=4;overflow=hidden;rotatable=0;points=[[0,0.5],[1,0.5]];portConstraint=eastwest;" vertex="1" parent="XUGBlDIWUp4kDWDOZf_2-47">
          <mxGeometry y="52" width="140" height="26" as="geometry" />
        </mxCell>
        <mxCell id="XUGBlDIWUp4kDWDOZf_2-50" value="+ icon: Image" style="text;strokeColor=none;fillColor=none;align=left;verticalAlign=top;spacingLeft=4;spacingRight=4;overflow=hidden;rotatable=0;points=[[0,0.5],[1,0.5]];portConstraint=eastwest;" vertex="1" parent="XUGBlDIWUp4kDWDOZf_2-47">
          <mxGeometry y="78" width="140" height="26" as="geometry" />
        </mxCell>
        <mxCell id="XUGBlDIWUp4kDWDOZf_2-51" value="+ type: String" style="text;strokeColor=none;fillColor=none;align=left;verticalAlign=top;spacingLeft=4;spacingRight=4;overflow=hidden;rotatable=0;points=[[0,0.5],[1,0.5]];portConstraint=eastwest;" vertex="1" parent="XUGBlDIWUp4kDWDOZf_2-47">
          <mxGeometry y="104" width="140" height="26" as="geometry" />
        </mxCell>
        <mxCell id="XUGBlDIWUp4kDWDOZf_2-52" value="&lt;b&gt;Person&lt;/b&gt;" style="swimlane;fontStyle=0;childLayout=stackLayout;horizontal=1;startSize=26;fillColor=none;horizontalStack=0;resizeParent=1;resizeParentMax=0;resizeLast=0;collapsible=1;marginBottom=0;fontSize=11;html=1;" vertex="1" parent="NOlgtETGSss0G0qQo0d1-1">
          <mxGeometry x="1010" y="678" width="140" height="130" as="geometry" />
        </mxCell>
        <mxCell id="XUGBlDIWUp4kDWDOZf_2-53" value="+ _id: ObjectId" style="text;strokeColor=none;fillColor=none;align=left;verticalAlign=top;spacingLeft=4;spacingRight=4;overflow=hidden;rotatable=0;points=[[0,0.5],[1,0.5]];portConstraint=eastwest;" vertex="1" parent="XUGBlDIWUp4kDWDOZf_2-52">
          <mxGeometry y="26" width="140" height="26" as="geometry" />
        </mxCell>
        <mxCell id="XUGBlDIWUp4kDWDOZf_2-54" value="+ name: String" style="text;strokeColor=none;fillColor=none;align=left;verticalAlign=top;spacingLeft=4;spacingRight=4;overflow=hidden;rotatable=0;points=[[0,0.5],[1,0.5]];portConstraint=eastwest;" vertex="1" parent="XUGBlDIWUp4kDWDOZf_2-52">
          <mxGeometry y="52" width="140" height="26" as="geometry" />
        </mxCell>
        <mxCell id="XUGBlDIWUp4kDWDOZf_2-55" value="+ phoneNumber: String" style="text;strokeColor=none;fillColor=none;align=left;verticalAlign=top;spacingLeft=4;spacingRight=4;overflow=hidden;rotatable=0;points=[[0,0.5],[1,0.5]];portConstraint=eastwest;" vertex="1" parent="XUGBlDIWUp4kDWDOZf_2-52">
          <mxGeometry y="78" width="140" height="26" as="geometry" />
        </mxCell>
        <mxCell id="XUGBlDIWUp4kDWDOZf_2-57" value="+ total: Number" style="text;strokeColor=none;fillColor=none;align=left;verticalAlign=top;spacingLeft=4;spacingRight=4;overflow=hidden;rotatable=0;points=[[0,0.5],[1,0.5]];portConstraint=eastwest;" vertex="1" parent="XUGBlDIWUp4kDWDOZf_2-52">
          <mxGeometry y="104" width="140" height="26" as="geometry" />
        </mxCell>
        <mxCell id="XUGBlDIWUp4kDWDOZf_2-83" style="edgeStyle=orthogonalEdgeStyle;rounded=0;orthogonalLoop=1;jettySize=auto;html=1;exitX=1;exitY=0.5;exitDx=0;exitDy=0;entryX=0.5;entryY=0;entryDx=0;entryDy=0;startArrow=none;startFill=0;endArrow=none;endFill=0;fontSize=11;" edge="1" parent="NOlgtETGSss0G0qQo0d1-1" source="DC28FSc4O947yLNKNgoS-5" target="XUGBlDIWUp4kDWDOZf_2-21">
          <mxGeometry relative="1" as="geometry" />
        </mxCell>
        <mxCell id="XUGBlDIWUp4kDWDOZf_2-84" value="1" style="edgeLabel;html=1;align=center;verticalAlign=middle;resizable=0;points=[];fontSize=11;" vertex="1" connectable="0" parent="XUGBlDIWUp4kDWDOZf_2-83">
          <mxGeometry x="-0.9108" relative="1" as="geometry">
            <mxPoint as="offset" />
          </mxGeometry>
        </mxCell>
        <mxCell id="XUGBlDIWUp4kDWDOZf_2-85" value="0..*" style="edgeLabel;html=1;align=center;verticalAlign=middle;resizable=0;points=[];fontSize=11;" vertex="1" connectable="0" parent="XUGBlDIWUp4kDWDOZf_2-83">
          <mxGeometry x="0.9045" y="2" relative="1" as="geometry">
            <mxPoint x="-3" as="offset" />
          </mxGeometry>
        </mxCell>
        <mxCell id="XUGBlDIWUp4kDWDOZf_2-90" style="edgeStyle=orthogonalEdgeStyle;rounded=0;orthogonalLoop=1;jettySize=auto;html=1;startArrow=none;startFill=0;endArrow=none;endFill=0;fontSize=11;" edge="1" parent="NOlgtETGSss0G0qQo0d1-1" source="XUGBlDIWUp4kDWDOZf_2-47" target="XUGBlDIWUp4kDWDOZf_2-21">
          <mxGeometry relative="1" as="geometry">
            <Array as="points">
              <mxPoint x="913" y="576" />
              <mxPoint x="913" y="550" />
            </Array>
          </mxGeometry>
        </mxCell>
        <mxCell id="XUGBlDIWUp4kDWDOZf_2-92" value="1" style="edgeLabel;html=1;align=center;verticalAlign=middle;resizable=0;points=[];fontSize=11;" vertex="1" connectable="0" parent="XUGBlDIWUp4kDWDOZf_2-90">
          <mxGeometry x="-0.8899" y="1" relative="1" as="geometry">
            <mxPoint as="offset" />
          </mxGeometry>
        </mxCell>
        <mxCell id="XUGBlDIWUp4kDWDOZf_2-93" value="0..*" style="edgeLabel;html=1;align=center;verticalAlign=middle;resizable=0;points=[];fontSize=11;" vertex="1" connectable="0" parent="XUGBlDIWUp4kDWDOZf_2-90">
          <mxGeometry x="0.7901" y="1" relative="1" as="geometry">
            <mxPoint x="-3" as="offset" />
          </mxGeometry>
        </mxCell>
        <mxCell id="XUGBlDIWUp4kDWDOZf_2-95" style="edgeStyle=orthogonalEdgeStyle;rounded=0;orthogonalLoop=1;jettySize=auto;html=1;exitX=0;exitY=0.5;exitDx=0;exitDy=0;startArrow=none;startFill=0;endArrow=none;endFill=0;fontSize=11;" edge="1" parent="NOlgtETGSss0G0qQo0d1-1" source="XUGBlDIWUp4kDWDOZf_2-8" target="XUGBlDIWUp4kDWDOZf_2-43">
          <mxGeometry relative="1" as="geometry" />
        </mxCell>
        <mxCell id="XUGBlDIWUp4kDWDOZf_2-96" value="1" style="edgeLabel;html=1;align=center;verticalAlign=middle;resizable=0;points=[];fontSize=11;" vertex="1" connectable="0" parent="XUGBlDIWUp4kDWDOZf_2-95">
          <mxGeometry x="0.7572" relative="1" as="geometry">
            <mxPoint as="offset" />
          </mxGeometry>
        </mxCell>
        <mxCell id="XUGBlDIWUp4kDWDOZf_2-97" value="1..*" style="edgeLabel;html=1;align=center;verticalAlign=middle;resizable=0;points=[];fontSize=11;" vertex="1" connectable="0" parent="XUGBlDIWUp4kDWDOZf_2-95">
          <mxGeometry x="-0.8488" y="1" relative="1" as="geometry">
            <mxPoint x="-4" as="offset" />
          </mxGeometry>
        </mxCell>
        <mxCell id="XUGBlDIWUp4kDWDOZf_2-98" style="edgeStyle=orthogonalEdgeStyle;rounded=0;orthogonalLoop=1;jettySize=auto;html=1;exitX=1;exitY=0.5;exitDx=0;exitDy=0;startArrow=diamondThin;startFill=1;endArrow=none;endFill=0;fontSize=11;" edge="1" parent="NOlgtETGSss0G0qQo0d1-1" source="XUGBlDIWUp4kDWDOZf_2-7" target="XUGBlDIWUp4kDWDOZf_2-21">
          <mxGeometry relative="1" as="geometry" />
        </mxCell>
        <mxCell id="XUGBlDIWUp4kDWDOZf_2-99" value="1" style="edgeLabel;html=1;align=center;verticalAlign=middle;resizable=0;points=[];fontSize=11;" vertex="1" connectable="0" parent="XUGBlDIWUp4kDWDOZf_2-98">
          <mxGeometry x="-0.8511" relative="1" as="geometry">
            <mxPoint as="offset" />
          </mxGeometry>
        </mxCell>
        <mxCell id="XUGBlDIWUp4kDWDOZf_2-100" value="0..*" style="edgeLabel;html=1;align=center;verticalAlign=middle;resizable=0;points=[];fontSize=11;" vertex="1" connectable="0" parent="XUGBlDIWUp4kDWDOZf_2-98">
          <mxGeometry x="0.8872" y="-3" relative="1" as="geometry">
            <mxPoint y="-1" as="offset" />
          </mxGeometry>
        </mxCell>
        <mxCell id="XUGBlDIWUp4kDWDOZf_2-101" style="edgeStyle=orthogonalEdgeStyle;rounded=0;orthogonalLoop=1;jettySize=auto;html=1;exitX=0.5;exitY=0;exitDx=0;exitDy=0;startArrow=none;startFill=0;endArrow=none;endFill=0;fontSize=11;" edge="1" parent="NOlgtETGSss0G0qQo0d1-1" source="XUGBlDIWUp4kDWDOZf_2-47" target="XUGBlDIWUp4kDWDOZf_2-61">
          <mxGeometry relative="1" as="geometry" />
        </mxCell>
        <mxCell id="XUGBlDIWUp4kDWDOZf_2-102" value="1" style="edgeLabel;html=1;align=center;verticalAlign=middle;resizable=0;points=[];fontSize=11;" vertex="1" connectable="0" parent="XUGBlDIWUp4kDWDOZf_2-101">
          <mxGeometry x="0.8091" y="-1" relative="1" as="geometry">
            <mxPoint x="-2" as="offset" />
          </mxGeometry>
        </mxCell>
        <mxCell id="XUGBlDIWUp4kDWDOZf_2-103" value="1" style="edgeLabel;html=1;align=center;verticalAlign=middle;resizable=0;points=[];fontSize=11;" vertex="1" connectable="0" parent="XUGBlDIWUp4kDWDOZf_2-101">
          <mxGeometry x="-0.751" y="1" relative="1" as="geometry">
            <mxPoint as="offset" />
          </mxGeometry>
        </mxCell>
        <mxCell id="XUGBlDIWUp4kDWDOZf_2-104" style="edgeStyle=orthogonalEdgeStyle;rounded=0;orthogonalLoop=1;jettySize=auto;html=1;exitX=1;exitY=0.5;exitDx=0;exitDy=0;startArrow=none;startFill=0;endArrow=diamondThin;endFill=0;fontSize=11;" edge="1" parent="NOlgtETGSss0G0qQo0d1-1" source="XUGBlDIWUp4kDWDOZf_2-29" target="XUGBlDIWUp4kDWDOZf_2-52">
          <mxGeometry relative="1" as="geometry" />
        </mxCell>
        <mxCell id="XUGBlDIWUp4kDWDOZf_2-105" value="1..*" style="edgeLabel;html=1;align=center;verticalAlign=middle;resizable=0;points=[];fontSize=11;" vertex="1" connectable="0" parent="XUGBlDIWUp4kDWDOZf_2-104">
          <mxGeometry x="-0.7794" y="-1" relative="1" as="geometry">
            <mxPoint as="offset" />
          </mxGeometry>
        </mxCell>
        <mxCell id="XUGBlDIWUp4kDWDOZf_2-106" value="1" style="edgeLabel;html=1;align=center;verticalAlign=middle;resizable=0;points=[];fontSize=11;" vertex="1" connectable="0" parent="XUGBlDIWUp4kDWDOZf_2-104">
          <mxGeometry x="0.4789" y="-1" relative="1" as="geometry">
            <mxPoint x="21.48" y="1" as="offset" />
          </mxGeometry>
        </mxCell>
        <mxCell id="XUGBlDIWUp4kDWDOZf_2-107" style="edgeStyle=orthogonalEdgeStyle;rounded=0;orthogonalLoop=1;jettySize=auto;html=1;startArrow=diamondThin;startFill=0;endArrow=none;endFill=0;fontSize=11;" edge="1" parent="NOlgtETGSss0G0qQo0d1-1" source="XUGBlDIWUp4kDWDOZf_2-52" target="XUGBlDIWUp4kDWDOZf_2-32">
          <mxGeometry relative="1" as="geometry" />
        </mxCell>
        <mxCell id="XUGBlDIWUp4kDWDOZf_2-108" value="1..*" style="edgeLabel;html=1;align=center;verticalAlign=middle;resizable=0;points=[];fontSize=11;" vertex="1" connectable="0" parent="XUGBlDIWUp4kDWDOZf_2-107">
          <mxGeometry x="0.8894" relative="1" as="geometry">
            <mxPoint x="2" as="offset" />
          </mxGeometry>
        </mxCell>
        <mxCell id="XUGBlDIWUp4kDWDOZf_2-109" value="1" style="edgeLabel;html=1;align=center;verticalAlign=middle;resizable=0;points=[];fontSize=11;" vertex="1" connectable="0" parent="XUGBlDIWUp4kDWDOZf_2-107">
          <mxGeometry x="-0.8306" y="1" relative="1" as="geometry">
            <mxPoint x="-1" y="-1" as="offset" />
          </mxGeometry>
        </mxCell>
      </root>
    </mxGraphModel>
  </diagram>
</mxfile>
